# xmcd CD database file
# Copyright (C) 1993-1996 Ti Kan
#
# Track frame offsets:
#  150
#  15412
#  29825
#  39650
#  54612
#  67382
#  80787
#  94312
#  113575
#  127162
#  142787
#  159212
#
# Disc length: 2335 seconds
#
# Revision: 4
# Processed by: cddbd v1.5.1PL0 Copyright (c) Steve Scherf et al.
# Submitted via: Advanced CD Ripper Pro 2.0
#
DISCID=a7091d0c
DTITLE=George Jones - The Gospel Collection [CD1]
DYEAR=2003
DGENRE=Gospel
TTITLE0=Amazing Grace
TTITLE1=It Is No Secret
TTITLE2=Just A Little Talk With Jesus
TTITLE3=Where We'll Never Grow Old
TTITLE4=Swing Low, Sweet Chariot
TTITLE5=Why Me Lord
TTITLE6=I'll Fly Away
TTITLE7=Precious Memories (Featuring Patti Page)
TTITLE8=Just A Closer Walk With Thee
TTITLE9=In The Garden
TTITLE10=Lonesome Valley
TTITLE11=When Mama Sang (The Angels Stopped To Listen
EXTD=
EXTT0=
EXTT1=
EXTT2=
EXTT3=
EXTT4=
EXTT5=
EXTT6=
EXTT7=
EXTT8=
EXTT9=
EXTT10=
EXTT11=
PLAYORDER=
